<svg width="177" height="55" viewBox="0 0 177 55" fill="none" xmlns="http://www.w3.org/2000/svg">
<g clip-path="url(#clip0_9_1384)">
<path d="M162.025 26.1072C161.144 25.1641 160.705 23.9201 160.705 22.3769C160.705 20.8337 161.144 19.5897 162.025 18.645C162.905 17.7019 164.057 17.2296 165.481 17.2296C166.905 17.2296 168.057 17.7019 168.937 18.645C169.817 19.5881 170.257 20.8321 170.257 22.3769C170.257 23.9201 169.817 25.1641 168.937 26.1072C168.057 27.0503 166.905 27.5226 165.481 27.5226C164.057 27.5226 162.905 27.0519 162.025 26.1072ZM175.808 17.9171C175.263 16.5453 174.495 15.366 173.504 14.3793C172.512 13.3925 171.333 12.6209 169.964 12.0628C168.596 11.5047 167.101 11.2265 165.481 11.2265C163.832 11.2265 162.331 11.5047 160.977 12.0628C159.621 12.6209 158.448 13.3925 157.457 14.3793C156.465 15.366 155.697 16.5453 155.153 17.9171C154.608 19.2888 154.336 20.7771 154.336 22.3769C154.336 23.9784 154.608 25.465 155.153 26.8368C155.698 28.2085 156.466 29.3878 157.457 30.3746C158.448 31.3613 159.621 32.1329 160.977 32.691C162.331 33.2491 163.832 33.5274 165.481 33.5274C167.101 33.5274 168.596 33.2491 169.964 32.691C171.333 32.1329 172.513 31.3613 173.504 30.3746C174.495 29.3878 175.263 28.2085 175.808 26.8368C176.354 25.465 176.625 23.9784 176.625 22.3769C176.625 20.7754 176.354 19.2888 175.808 17.9171ZM152.116 32.9693V21.9903C152.116 20.1899 151.871 18.6175 151.382 17.2732C150.894 15.929 150.202 14.8079 149.309 13.9069C148.415 13.0059 147.34 12.3346 146.083 11.8913C144.827 11.4481 143.43 11.2265 141.894 11.2265C140.358 11.2265 138.961 11.4562 137.704 11.9124C136.448 12.3701 135.372 13.0496 134.479 13.949C133.584 14.85 132.894 15.9726 132.405 17.3153C131.917 18.6596 131.672 20.2174 131.672 21.9903V32.9693H137.957V21.9903C137.957 20.3031 138.319 19.0882 139.046 18.3457C139.772 17.6032 140.721 17.2312 141.896 17.2312C143.068 17.2312 144.018 17.6032 144.745 18.3457C145.47 19.0899 145.834 20.3047 145.834 21.9903V32.9693H152.116ZM127.941 32.9693V11.7829H121.656V32.9693H127.941ZM127.669 8.67382C128.437 7.88765 128.821 6.90897 128.821 5.73617C128.821 4.565 128.437 3.5847 127.669 2.79853C126.901 2.01235 125.943 1.61926 124.799 1.61926C123.653 1.61926 122.697 2.01235 121.929 2.79853C121.161 3.5847 120.777 4.565 120.777 5.73617C120.777 6.90897 121.161 7.88765 121.929 8.67382C122.697 9.46 123.653 9.85309 124.799 9.85309C125.943 9.8547 126.9 9.46162 127.669 8.67382ZM117.258 32.9693V2.52029H110.973V32.9693H117.258ZM92.7259 26.1072C91.8456 25.1641 91.4063 23.9201 91.4063 22.3769C91.4063 20.8337 91.8456 19.5897 92.7259 18.645C93.6061 17.7019 94.7582 17.2296 96.1821 17.2296C97.606 17.2296 98.7581 17.7019 99.6384 18.645C100.519 19.5881 100.958 20.8321 100.958 22.3769C100.958 23.9201 100.519 25.1641 99.6384 26.1072C98.7581 27.0503 97.606 27.5226 96.1821 27.5226C94.7582 27.5226 93.6061 27.0519 92.7259 26.1072ZM107.245 22.5904C107.245 20.8466 106.973 19.2743 106.428 17.8734C105.882 16.4725 105.129 15.2787 104.165 14.2919C103.2 13.3051 102.034 12.5481 100.666 12.0191C99.297 11.4901 97.802 11.2249 96.1821 11.2249C94.5338 11.2249 93.0325 11.5031 91.6781 12.0612C90.3222 12.6193 89.1495 13.3909 88.1587 14.3776C87.1662 15.3644 86.3981 16.5437 85.8545 17.9154C85.3109 19.2872 85.0375 20.7754 85.0375 22.3753C85.0375 24.3488 85.3519 26.036 85.9809 27.4353C86.6099 28.8362 87.4048 29.9863 88.3688 30.8874C89.3329 31.7884 90.4012 32.4532 91.5738 32.8819C92.7464 33.3106 93.878 33.5257 94.9668 33.5257C96.5029 33.5257 97.8289 33.1747 98.9478 32.4743C100.065 31.7738 100.876 30.8372 101.378 29.666H101.462V32.9676H107.245V22.5904ZM78.7113 32.9693V11.3543H86.2117V4.9225H64.4659V11.3559H71.9236V32.9709H78.7113V32.9693Z" fill="white"/>
<path d="M29.3188 6.93647L12.8768 23.7665C11.7405 24.9296 9.89621 24.9296 8.75993 23.7665L8.35062 23.3475C7.21434 22.1844 7.21434 20.2966 8.35062 19.1335L24.7927 2.30353C25.9289 1.14044 27.7732 1.14044 28.9095 2.30353L29.3188 2.7225C30.4551 3.88559 30.4551 5.77338 29.3188 6.93647Z" fill="white"/>
<path d="M24.7357 10.5018L33.1685 19.1335C34.3048 20.2966 34.3048 22.1844 33.1685 23.3475L32.7592 23.7665C31.6229 24.9296 29.7787 24.9296 28.6424 23.7665L20.2096 15.1347L24.7357 10.5018Z" fill="white"/>
<path d="M30.474 29.3101L38.9068 20.6784L43.433 25.3113L35.0002 33.9431C33.8639 35.1062 32.0196 35.1062 30.8833 33.9431L30.474 33.5241C29.3378 32.3594 29.3378 30.4732 30.474 29.3101Z" fill="white"/>
<path d="M25.0598 31.185L33.4072 39.7294L28.8811 44.3624L20.5336 35.8179C19.3973 34.6549 19.3973 32.7671 20.5336 31.604L20.9429 31.185C22.0792 30.0219 23.9235 30.0219 25.0598 31.185Z" fill="white"/>
<path d="M10.2249 29.6838L18.7004 21.0084C19.8366 19.8453 21.6809 19.8453 22.8172 21.0084L23.2265 21.4274C24.3628 22.5905 24.3628 24.4782 23.2265 25.6413L14.7511 34.3168L10.2249 29.6838Z" fill="white"/>
<path d="M46.9177 30.0025L30.474 13.1725C29.3378 12.0094 29.3378 10.1216 30.474 8.95852L30.8833 8.53955C32.0196 7.37646 33.8639 7.37646 35.0002 8.53955L51.4422 25.3696C52.5785 26.5326 52.5785 28.4204 51.4422 29.5835L51.0329 30.0025C49.8966 31.1656 48.0539 31.1656 46.9177 30.0025Z" fill="white"/>
<path d="M45.3515 35.8179L28.9095 52.6496C27.7732 53.8126 25.9289 53.8126 24.7927 52.6496L24.3833 52.2306C23.2471 51.0675 23.2471 49.1797 24.3833 48.0166L40.8254 31.1866C41.9617 30.0235 43.8059 30.0235 44.9422 31.1866L45.3515 31.6056C46.4894 32.7687 46.4894 34.6549 45.3515 35.8179Z" fill="white"/>
<path d="M6.78448 24.9506L23.2265 41.7806C24.3628 42.9437 24.3628 44.8315 23.2265 45.9946L22.8172 46.4135C21.6809 47.5766 19.8366 47.5766 18.7004 46.4135L2.25834 29.5835C1.12206 28.4204 1.12206 26.5326 2.25834 25.3696L2.66765 24.9506C3.80392 23.7859 5.6482 23.7859 6.78448 24.9506Z" fill="white"/>
<path d="M14.4129 8.76442C16.6761 8.76442 18.5107 6.88645 18.5107 4.56986C18.5107 2.25327 16.6761 0.375305 14.4129 0.375305C12.1497 0.375305 10.315 2.25327 10.315 4.56986C10.315 6.88645 12.1497 8.76442 14.4129 8.76442Z" fill="white"/>
<path d="M4.47244 44.4012C6.73563 44.4012 8.57031 42.5232 8.57031 40.2066C8.57031 37.89 6.73563 36.0121 4.47244 36.0121C2.20925 36.0121 0.374573 37.89 0.374573 40.2066C0.374573 42.5232 2.20925 44.4012 4.47244 44.4012Z" fill="white"/>
<path d="M49.3134 19.0268C51.5766 19.0268 53.4113 17.1488 53.4113 14.8322C53.4113 12.5156 51.5766 10.6376 49.3134 10.6376C47.0503 10.6376 45.2156 12.5156 45.2156 14.8322C45.2156 17.1488 47.0503 19.0268 49.3134 19.0268Z" fill="white"/>
<path d="M39.2877 54.5778C41.5509 54.5778 43.3856 52.6998 43.3856 50.3832C43.3856 48.0666 41.5509 46.1887 39.2877 46.1887C37.0245 46.1887 35.1898 48.0666 35.1898 50.3832C35.1898 52.6998 37.0245 54.5778 39.2877 54.5778Z" fill="white"/>
<path d="M64.6967 40.2519H67.1968L69.2228 47.1059L71.2488 40.2519H73.692L70.4729 49.8721H67.9143L64.6967 40.2519Z" fill="white"/>
<path d="M73.6193 46.2388C73.6193 44.0324 75.1997 42.4147 77.4422 42.4147C79.6832 42.4147 81.2208 44.0324 81.2208 46.2388V46.8568H75.8603C76.0325 47.7093 76.6647 48.0927 77.4406 48.0927C78.0585 48.0927 78.5184 47.96 78.7918 47.5637H81.0186C80.5587 49.0632 79.2075 50.0646 77.4406 50.0646C75.1997 50.063 73.6193 48.4453 73.6193 46.2388ZM79.0083 45.4591C78.7634 44.7085 78.1897 44.385 77.4422 44.385C76.6947 44.385 76.1194 44.7231 75.9045 45.4591H79.0083Z" fill="white"/>
<path d="M82.3414 46.1062C82.3414 43.6652 83.7495 42.4147 85.8482 42.4147C87.9469 42.4147 89.355 43.6506 89.355 46.1062V49.8721H87.1994V46.1062C87.1994 44.9593 86.6526 44.474 85.8482 44.474C85.0438 44.474 84.497 44.9593 84.497 46.1062V49.8721H82.3414V46.1062Z" fill="white"/>
<path d="M90.7615 47.004V40.0319H92.9171V42.6056H96.2801V44.5921H92.9171V47.004C92.9171 47.7691 93.2616 48.0037 93.7357 48.0037C94.2098 48.0037 94.5543 47.7675 94.5543 47.004V46.784H96.7099V47.004C96.7099 49.0778 95.5025 50.063 93.7357 50.063C91.9689 50.063 90.7615 49.0778 90.7615 47.004Z" fill="white"/>
<path d="M97.7451 46.3715V42.6056H99.9007V46.3715C99.9007 47.5184 100.447 48.0037 101.252 48.0037C102.056 48.0037 102.603 47.5184 102.603 46.3715V42.6056H104.759V46.3715C104.759 48.8125 103.351 50.0629 101.252 50.0629C99.1532 50.0629 97.7451 48.8271 97.7451 46.3715Z" fill="white"/>
<path d="M106.165 45.739C106.165 43.4743 107.458 42.4147 109.356 42.4147C111.252 42.4147 112.532 43.4597 112.547 45.7535V45.7972H110.391V45.739C110.391 44.7684 109.96 44.474 109.356 44.474C108.752 44.474 108.321 44.7684 108.321 45.739V49.8721H106.165V45.739Z" fill="white"/>
<path d="M113.135 46.2388C113.135 44.0324 114.715 42.4147 116.957 42.4147C119.2 42.4147 120.736 44.0324 120.736 46.2388V46.8568H115.376C115.548 47.7093 116.18 48.0927 116.956 48.0927C117.574 48.0927 118.034 47.96 118.307 47.5637H120.534C120.074 49.0632 118.723 50.0646 116.956 50.0646C114.715 50.063 113.135 48.4453 113.135 46.2388ZM118.524 45.4591C118.279 44.7085 117.705 44.385 116.957 44.385C116.21 44.385 115.635 44.7231 115.42 45.4591H118.524Z" fill="white"/>
<path d="M125.435 47.0331H127.706C127.706 47.6365 128.064 48.0182 128.97 48.0182C129.875 48.0182 130.234 47.6365 130.234 47.0331C130.234 46.4006 129.515 46.2534 128.654 46.0916C127.317 45.8409 125.607 45.5174 125.607 43.1799C125.607 41.3568 126.958 40.061 128.984 40.061C130.953 40.061 132.289 41.2824 132.361 43.1054H130.177C130.163 42.5457 129.818 42.1057 129.012 42.1057C128.18 42.1057 127.848 42.591 127.848 43.0909C127.848 43.7234 128.567 43.8706 129.442 44.0324C130.794 44.2815 132.503 44.6066 132.503 46.9441C132.503 48.8562 131.095 50.0629 128.968 50.0629C126.871 50.0629 125.477 48.9015 125.435 47.0331Z" fill="white"/>
<path d="M133.668 47.004V40.0319H135.824V42.6056H139.187V44.5921H135.824V47.004C135.824 47.7691 136.168 48.0037 136.642 48.0037C137.117 48.0037 137.461 47.7675 137.461 47.004V46.784H139.617V47.004C139.617 49.0778 138.409 50.063 136.642 50.063C134.876 50.063 133.668 49.0778 133.668 47.004Z" fill="white"/>
<path d="M140.652 46.3715V42.6056H142.807V46.3715C142.807 47.5184 143.354 48.0037 144.159 48.0037C144.963 48.0037 145.51 47.5184 145.51 46.3715V42.6056H147.665V46.3715C147.665 48.8125 146.257 50.0629 144.159 50.0629C142.06 50.0629 140.652 48.8271 140.652 46.3715Z" fill="white"/>
<path d="M148.784 46.1499C148.784 43.6199 150.624 42.4147 152.233 42.4147C153.081 42.4147 153.799 42.7528 154.244 43.3999V39.4285H156.4V46.1644C156.4 48.6055 154.791 50.063 152.621 50.063C150.365 50.063 148.784 48.489 148.784 46.1499ZM154.244 46.2388C154.244 45.1938 153.584 44.474 152.606 44.474C151.629 44.474 150.967 45.1955 150.967 46.2388C150.967 47.2822 151.627 48.0037 152.606 48.0037C153.584 48.0037 154.244 47.2838 154.244 46.2388Z" fill="white"/>
<path d="M157.737 40.5318C157.737 39.7229 158.327 39.1196 159.117 39.1196C159.907 39.1196 160.496 39.7229 160.496 40.5318C160.496 41.3406 159.907 41.944 159.117 41.944C158.327 41.944 157.737 41.3406 157.737 40.5318ZM158.039 42.6056H160.194V49.8721H158.039V42.6056Z" fill="white"/>
<path d="M161.544 46.2388C161.544 44.0324 163.124 42.4147 165.367 42.4147C167.61 42.4147 169.19 44.0324 169.19 46.2388C169.19 48.4453 167.61 50.063 165.367 50.063C163.124 50.063 161.544 48.4453 161.544 46.2388ZM167.004 46.2388C167.004 45.1938 166.344 44.474 165.365 44.474C164.389 44.474 163.727 45.1955 163.727 46.2388C163.727 47.2822 164.387 48.0037 165.365 48.0037C166.344 48.0037 167.004 47.2838 167.004 46.2388Z" fill="white"/>
<path d="M170.023 47.6656H172.15C172.164 48.0474 172.437 48.2399 173.027 48.2399C173.688 48.2399 173.904 48.0037 173.904 47.6963C173.904 47.211 173.387 47.1674 172.725 47.0638C171.748 46.9166 170.138 46.6659 170.138 44.9156C170.138 43.4452 171.273 42.4147 173.041 42.4147C174.808 42.4147 175.9 43.4597 175.944 44.7684H173.846C173.789 44.4303 173.501 44.2394 173.07 44.2394C172.539 44.2394 172.322 44.5193 172.322 44.8137C172.322 45.2553 172.839 45.3135 173.501 45.4171C174.522 45.5643 176.088 45.8441 176.088 47.5653C176.088 49.0649 174.881 50.0662 173.055 50.0662C171.23 50.0662 170.051 49.0632 170.023 47.6656Z" fill="white"/>
</g>
<defs>
<clipPath id="clip0_9_1384">
<rect width="177" height="55" fill="white"/>
</clipPath>
</defs>
</svg>
